<svg width="32" height="33" viewBox="0 0 32 33" fill="none" xmlns="http://www.w3.org/2000/svg">
<path d="M29.3333 16.7H26.0267C25.4439 16.6987 24.8769 16.8884 24.4121 17.2399C23.9474 17.5915 23.6107 18.0856 23.4533 18.6466L20.32 29.7933C20.2998 29.8625 20.2577 29.9234 20.2 29.9666C20.1423 30.0099 20.0721 30.0333 20 30.0333C19.9279 30.0333 19.8577 30.0099 19.8 29.9666C19.7423 29.9234 19.7002 29.8625 19.68 29.7933L12.32 3.60664C12.2998 3.5374 12.2577 3.47658 12.2 3.4333C12.1423 3.39003 12.0721 3.36664 12 3.36664C11.9279 3.36664 11.8577 3.39003 11.8 3.4333C11.7423 3.47658 11.7002 3.5374 11.68 3.60664L8.54666 14.7533C8.38994 15.3122 8.05516 15.8047 7.59314 16.156C7.13112 16.5073 6.56708 16.6983 5.98666 16.7H2.66666" stroke="#2563EB" stroke-width="2" stroke-linecap="round" stroke-linejoin="round"/>
</svg>
