<svg aria-hidden="true" style="position: absolute; width: 0; height: 0; overflow: hidden;" version="1.1" xmlns="http://www.w3.org/2000/svg" xmlns:xlink="http://www.w3.org/1999/xlink">
<defs>
<symbol id="icon-close" viewBox="0 0 32 32">
<path d="M27 9L9 27" stroke="#262626" stroke-width="3" stroke-linecap="round" stroke-linejoin="round"/>
<path d="M9 9L27 27" stroke="#262626" stroke-width="3" stroke-linecap="round" stroke-linejoin="round"/>
</symbol>
<symbol id="icon-drop-of-blood" viewBox="0 0 32 32">
<path fill="#e5322e" style="fill: var(--color1, #e5322e)" d="M22.010 11.065c-3.15-3.862-4.543-7.147-5.34-9.107-0.253-0.618-1.090-0.618-1.34 0-0.797 1.96-2.19 5.245-5.34 9.107-1.973 2.42-3.918 5.963-3.918 9.452 0 5.955 4.297 9.988 9.927 9.988s9.928-4.035 9.928-9.988c0-3.628-1.945-7.032-3.918-9.453z"></path>
<path fill="#ff6050" style="fill: var(--color2, #ff6050)" d="M18.745 19.96c1.587-3.020 1.363-5.975 2.617-5.442 1.705 0.727 3.593 4.465 2.885 7.852-0.505 2.415-2.135 3.878-4.212 3.18-1.677-0.563-2.72-2.87-1.29-5.59z"></path>
</symbol>
<symbol id="icon-time-complexity" viewBox="0 0 32 32">
<path fill="none" style="fill: var(--color1, none)" d="M6.575 0.438h18.849c3.389 0 6.137 2.748 6.137 6.137v18.849c0 3.389-2.748 6.137-6.137 6.137h-18.849c-3.389 0-6.137-2.748-6.137-6.137v-18.849c0-3.389 2.748-6.137 6.137-6.137z"></path>
<path fill="#b4d2d7" style="fill: var(--color2, #b4d2d7)" d="M22.399 10.039l0.78 0.78-1.639 1.639-0.78-0.78z"></path>
<path fill="#e1ebf0" style="fill: var(--color3, #e1ebf0)" d="M9.403 10.039l1.639 1.639-0.78 0.78-1.639-1.639z"></path>
<path fill="#87a0af" style="fill: var(--color4, #87a0af)" d="M22.008 8.868l2.342 2.342-0.78 0.78-2.342-2.342z"></path>
<path fill="#b4d2d7" style="fill: var(--color2, #b4d2d7)" d="M9.794 8.868l0.78 0.78-2.342 2.342-0.78-0.78z"></path>
<path fill="#b4d2d7" style="fill: var(--color2, #b4d2d7)" d="M17.74 7.127h-2.575l0.736 3.87h1.84z"></path>
<path fill="#e1ebf0" style="fill: var(--color3, #e1ebf0)" d="M14.061 7.127h1.84v3.87h-1.84z"></path>
<path fill="#005fe1" style="fill: var(--color5, #005fe1)" d="M21.618 11.6c-1.527-1.527-3.557-2.368-5.717-2.368l-0.736 8.085 0.736 8.085c2.16 0 4.19-0.841 5.717-2.368s2.368-3.557 2.368-5.717c0-2.16-0.841-4.19-2.368-5.717z"></path>
<path fill="#69b1e9" style="fill: var(--color6, #69b1e9)" d="M10.184 11.6c-1.527 1.527-2.368 3.557-2.368 5.717s0.841 4.19 2.368 5.717 3.557 2.368 5.717 2.368v-16.169c-2.159 0-4.19 0.841-5.717 2.368z"></path>
<path fill="#efe2dd" style="fill: var(--color7, #efe2dd)" d="M15.165 16.581l0.736 6.685c3.281 0 5.949-2.669 5.949-5.949l-6.685-0.736z"></path>
<path fill="#00cc76" style="fill: var(--color8, #00cc76)" d="M21.85 17.317c0-3.28-2.669-5.949-5.949-5.949l-0.736 5.949h6.685z"></path>
<path fill="#87a0af" style="fill: var(--color4, #87a0af)" d="M18.845 6.575h-2.944l-0.368 0.552 0.368 0.551h2.944z"></path>
<path fill="#b4d2d7" style="fill: var(--color2, #b4d2d7)" d="M12.957 6.575h2.944v1.103h-2.944z"></path>
<path fill="#fff5f5" style="fill: var(--color9, #fff5f5)" d="M15.901 11.368c-3.28 0-5.949 2.669-5.949 5.949s2.669 5.949 5.949 5.949v-11.899z"></path>
<path fill="#005fe1" style="fill: var(--color5, #005fe1)" d="M15.901 15.662l-0.736 1.656 0.736 1.656c0.913 0 1.656-0.743 1.656-1.656s-0.743-1.656-1.656-1.656z"></path>
<path fill="#69b1e9" style="fill: var(--color6, #69b1e9)" d="M14.245 17.317c0 0.913 0.743 1.656 1.656 1.656v-3.311c-0.913 0-1.656 0.743-1.656 1.656z"></path>
</symbol>
<symbol id="icon-basket" viewBox="0 0 32 32">
<path  stroke="#2563eb" style="stroke: var(--color1, #2563eb)" stroke-linejoin="round" stroke-linecap="round" stroke-miterlimit="4" stroke-width="2.6667" d="M4 8h24"></path>
<path  stroke="#2563eb" style="stroke: var(--color1, #2563eb)" stroke-linejoin="round" stroke-linecap="round" stroke-miterlimit="4" stroke-width="2.6667" d="M25.333 8v18.667c0 0.707-0.281 1.386-0.781 1.886s-1.178 0.781-1.886 0.781h-13.333c-0.707 0-1.386-0.281-1.886-0.781s-0.781-1.178-0.781-1.886v-18.667M10.667 8v-2.667c0-0.707 0.281-1.386 0.781-1.886s1.178-0.781 1.886-0.781h5.333c0.707 0 1.386 0.281 1.886 0.781s0.781 1.178 0.781 1.886v2.667"></path>
<path  stroke="#2563eb" style="stroke: var(--color1, #2563eb)" stroke-linejoin="round" stroke-linecap="round" stroke-miterlimit="4" stroke-width="2.6667" d="M13.333 14.667v8"></path>
<path  stroke="#2563eb" style="stroke: var(--color1, #2563eb)" stroke-linejoin="round" stroke-linecap="round" stroke-miterlimit="4" stroke-width="2.6667" d="M18.667 14.667v8"></path>
</symbol>
<symbol id="icon-trash-04" viewBox="0 0 32 32">
<path stroke-linejoin="round" stroke-linecap="round" stroke-miterlimit="4" stroke-width="2.9714" d="M12 4h8"></path>
<path stroke-linejoin="round" stroke-linecap="round" stroke-miterlimit="4" stroke-width="2.9714" d="M4 8h24M25.333 8l-0.935 14.026c-0.14 2.104-0.21 3.156-0.665 3.954-0.4 0.702-1.004 1.267-1.731 1.619-0.826 0.4-1.881 0.4-3.99 0.4h-4.025c-2.109 0-3.163 0-3.99-0.4-0.727-0.352-1.331-0.917-1.731-1.619-0.455-0.798-0.525-1.85-0.665-3.954l-0.935-14.026"></path>
</symbol>
<symbol id="icon-log-out" viewBox="0 0 32 32">
<path stroke-linejoin="round" stroke-linecap="round" stroke-miterlimit="4" stroke-width="3" d="M12 28h-5.333c-0.707 0-1.386-0.281-1.886-0.781s-0.781-1.178-0.781-1.886v-18.667c0-0.707 0.281-1.386 0.781-1.886s1.178-0.781 1.886-0.781h5.333"></path>
<path stroke-linejoin="round" stroke-linecap="round" stroke-miterlimit="4" stroke-width="3" d="M21.333 22.667l6.667-6.667-6.667-6.667"></path>
<path stroke-linejoin="round" stroke-linecap="round" stroke-miterlimit="4" stroke-width="3" d="M28 16h-16"></path>
</symbol>
<symbol id="icon-settings" viewBox="0 0 32 32">
<path stroke-linejoin="round" stroke-linecap="round" stroke-miterlimit="4" stroke-width="3" d="M16 20c2.209 0 4-1.791 4-4s-1.791-4-4-4c-2.209 0-4 1.791-4 4s1.791 4 4 4z"></path>
<path stroke-linejoin="round" stroke-linecap="round" stroke-miterlimit="4" stroke-width="3" d="M25.867 20c-0.178 0.402-0.231 0.848-0.152 1.281s0.285 0.832 0.592 1.146l0.080 0.080c0.248 0.248 0.445 0.542 0.579 0.865s0.203 0.671 0.203 1.021c0 0.35-0.069 0.697-0.203 1.021s-0.331 0.618-0.579 0.865c-0.248 0.248-0.542 0.445-0.866 0.579s-0.671 0.203-1.021 0.203c-0.35 0-0.697-0.069-1.021-0.203s-0.618-0.331-0.865-0.579l-0.080-0.080c-0.314-0.307-0.713-0.514-1.146-0.592s-0.879-0.025-1.281 0.152c-0.394 0.169-0.731 0.45-0.968 0.807s-0.364 0.777-0.366 1.206v0.227c0 0.707-0.281 1.386-0.781 1.886s-1.178 0.781-1.886 0.781-1.386-0.281-1.886-0.781c-0.5-0.5-0.781-1.178-0.781-1.886v-0.12c-0.010-0.441-0.153-0.869-0.41-1.228s-0.616-0.633-1.030-0.785c-0.402-0.178-0.848-0.231-1.281-0.152s-0.832 0.285-1.146 0.592l-0.080 0.080c-0.248 0.248-0.542 0.445-0.865 0.579s-0.671 0.203-1.021 0.203c-0.35 0-0.697-0.069-1.021-0.203s-0.618-0.331-0.865-0.579c-0.248-0.248-0.445-0.542-0.579-0.866s-0.203-0.671-0.203-1.021c0-0.35 0.069-0.697 0.203-1.021s0.331-0.618 0.579-0.865l0.080-0.080c0.307-0.314 0.514-0.713 0.592-1.146s0.025-0.879-0.152-1.281c-0.169-0.394-0.45-0.731-0.807-0.968s-0.777-0.364-1.206-0.366h-0.227c-0.707 0-1.386-0.281-1.886-0.781s-0.781-1.178-0.781-1.886c0-0.707 0.281-1.386 0.781-1.886s1.178-0.781 1.886-0.781h0.12c0.441-0.010 0.869-0.153 1.228-0.41s0.633-0.616 0.785-1.030c0.178-0.402 0.23-0.848 0.152-1.281s-0.285-0.832-0.592-1.146l-0.080-0.080c-0.248-0.248-0.445-0.542-0.579-0.866s-0.203-0.671-0.203-1.021c0-0.35 0.069-0.697 0.203-1.021s0.331-0.618 0.579-0.865c0.248-0.248 0.542-0.445 0.865-0.579s0.671-0.203 1.021-0.203c0.35 0 0.697 0.069 1.021 0.203s0.618 0.331 0.866 0.579l0.080 0.080c0.314 0.307 0.713 0.514 1.146 0.592s0.879 0.025 1.281-0.152h0.107c0.394-0.169 0.731-0.45 0.968-0.807s0.364-0.777 0.366-1.206v-0.227c0-0.707 0.281-1.386 0.781-1.886s1.178-0.781 1.886-0.781c0.707 0 1.386 0.281 1.886 0.781s0.781 1.178 0.781 1.886v0.12c0.002 0.429 0.129 0.848 0.366 1.206s0.573 0.638 0.968 0.807c0.402 0.177 0.848 0.23 1.281 0.152s0.832-0.285 1.146-0.592l0.080-0.080c0.248-0.248 0.542-0.445 0.865-0.579s0.671-0.203 1.021-0.203c0.35 0 0.697 0.069 1.021 0.203s0.618 0.331 0.865 0.579c0.248 0.248 0.445 0.542 0.579 0.865s0.203 0.671 0.203 1.021c0 0.35-0.069 0.697-0.203 1.021s-0.331 0.618-0.579 0.865l-0.080 0.080c-0.307 0.314-0.514 0.713-0.592 1.146s-0.025 0.879 0.152 1.281v0.107c0.169 0.394 0.45 0.731 0.807 0.968s0.777 0.364 1.206 0.366h0.227c0.707 0 1.386 0.281 1.886 0.781s0.781 1.178 0.781 1.886-0.281 1.386-0.781 1.886c-0.5 0.5-1.178 0.781-1.886 0.781h-0.12c-0.429 0.002-0.848 0.129-1.206 0.366s-0.638 0.573-0.807 0.968z"></path>
</symbol>
<symbol id="icon-eye" viewBox="0 0 32 32">
<path fill="none" stroke="#2563EB" style="stroke: var(--color2, #2563EB)" stroke-linejoin="round" stroke-linecap="round" stroke-miterlimit="4" stroke-width="2.9091" d="M1.332 16c0 0 5.333-10.667 14.667-10.667s14.667 10.667 14.667 10.667-5.333 10.667-14.667 10.667c-9.333 0-14.667-10.667-14.667-10.667z"></path>
<path fill="none" stroke="#2563EB" style="stroke: var(--color2, #2563EB)" stroke-linejoin="round" stroke-linecap="round" stroke-miterlimit="4" stroke-width="2.9091" d="M16 20c2.209 0 4-1.791 4-4s-1.791-4-4-4c-2.209 0-4 1.791-4 4s1.791 4 4 4z"></path>
</symbol>
<symbol id="icon-eye-off" viewBox="0 0 32 32">
<path fill="none" stroke="#2563EB" style="stroke: var(--color2, #2563EB)" stroke-linejoin="round" stroke-linecap="round" stroke-miterlimit="4" stroke-width="2.9091" d="M23.922 23.92c-2.279 1.737-5.055 2.7-7.92 2.747-9.333 0-14.667-10.667-14.667-10.667 1.659-3.091 3.959-5.791 6.747-7.92M13.202 5.653c0.918-0.215 1.857-0.322 2.8-0.32 9.333 0 14.667 10.667 14.667 10.667-0.809 1.514-1.775 2.94-2.88 4.253M18.828 18.827c-0.366 0.393-0.808 0.708-1.298 0.927s-1.020 0.336-1.557 0.346c-0.537 0.009-1.071-0.089-1.569-0.291s-0.951-0.5-1.33-0.88c-0.38-0.38-0.679-0.832-0.88-1.33s-0.3-1.032-0.29-1.569c0.009-0.537 0.127-1.067 0.346-1.557s0.534-0.932 0.927-1.298"></path>
<path fill="none" stroke="#2563EB" style="stroke: var(--color2, #2563EB)" stroke-linejoin="round" stroke-linecap="round" stroke-miterlimit="4" stroke-width="2.9091" d="M1.335 1.333l29.333 29.333"></path>
</symbol>
</defs>
</svg>
